HIERARCHY
ROOT Hips
{
    OFFSET 0.000000 0.000000 0.000000
    CHANNELS 6 Xposition Yposition Zposition Zrotation Xrotation Yrotation
    JOINT Spine
    {
        OFFSET -0.000000 7.925200 0.000000
        CHANNELS 3 Zrotation Xrotation Yrotation
        JOINT Spine1
        {
            OFFSET -0.000000 23.364719 0.000000
            CHANNELS 3 Zrotation Xrotation Yrotation
            JOINT Neck
            {
                OFFSET -0.000000 23.268766 2.115342
                CHANNELS 3 Zrotation Xrotation Yrotation
                JOINT Head
                {
                    OFFSET -0.000000 13.530829 -1.932976
                    CHANNELS 3 Zrotation Xrotation Yrotation
                    End Site
                    {
                        OFFSET -0.000000 24.162195 0.000000
                    }
                }
            }
            JOINT LeftShoulder
            {
                OFFSET 3.858291 22.792089 -0.033814
                CHANNELS 3 Zrotation Xrotation Yrotation
                JOINT LeftArm
                {
                    OFFSET 7.057024 0.000000 0.000000
                    CHANNELS 3 Zrotation Xrotation Yrotation
                    JOINT LeftForeArm
                    {
                        OFFSET 34.734173 0.000000 0.000000
                        CHANNELS 3 Zrotation Xrotation Yrotation
                        JOINT LeftHand
                        {
                            OFFSET 23.943203 0.000000 0.000000
                            CHANNELS 3 Zrotation Xrotation Yrotation
                            End Site
                            {
                                OFFSET 14.497317 0.000000 0.000000
                            }
                        }
                    }
                }
            }
            JOINT RightShoulder
            {
                OFFSET -3.868823 22.792089 -0.033814
                CHANNELS 3 Zrotation Xrotation Yrotation
                JOINT RightArm
                {
                    OFFSET -7.057024 0.000000 0.000000
                    CHANNELS 3 Zrotation Xrotation Yrotation
                    JOINT RightForeArm
                    {
                        OFFSET -34.734173 0.000000 0.000000
                        CHANNELS 3 Zrotation Xrotation Yrotation
                        JOINT RightHand
                        {
                            OFFSET -23.943203 0.000000 0.000000
                            CHANNELS 3 Zrotation Xrotation Yrotation
                            End Site
                            {
                                OFFSET -14.497317 0.000000 0.000000
                            }
                        }
                    }
                }
            }
        }
    }
    JOINT LeftUpLeg
    {
        OFFSET 9.664878 0.000000 0.000000
        CHANNELS 3 Zrotation Xrotation Yrotation
        JOINT LeftLeg
        {
            OFFSET -0.000000 -38.728706 0.000000
            CHANNELS 3 Zrotation Xrotation Yrotation
            JOINT LeftFoot
            {
                OFFSET -0.000000 -40.242161 0.000000
                CHANNELS 3 Zrotation Xrotation Yrotation
                JOINT LeftToeBase
                {
                    OFFSET -0.000000 -6.282171 14.497317
                    CHANNELS 3 Zrotation Xrotation Yrotation
                    End Site
                    {
                        OFFSET -0.000000 0.000000 3.865951
                    }
                }
            }
        }
    }
    JOINT RightUpLeg
    {
        OFFSET -9.664878 0.000000 0.000000
        CHANNELS 3 Zrotation Xrotation Yrotation
        JOINT RightLeg
        {
            OFFSET -0.000000 -38.728706 0.000000
            CHANNELS 3 Zrotation Xrotation Yrotation
            JOINT RightFoot
            {
                OFFSET -0.000000 -40.242161 0.000000
                CHANNELS 3 Zrotation Xrotation Yrotation
                JOINT RightToeBase
                {
                    OFFSET -0.000000 -6.282171 14.497317
                    CHANNELS 3 Zrotation Xrotation Yrotation
                    End Site
                    {
                        OFFSET -0.000000 0.000000 3.865951
                    }
                }
            }
        }
    }
}
MOTION
Frames:    10
Frame Time:    0.008333
37.966148    88.182869    28.354805    -1.572800    -1.182347    87.952705    0.644154    -4.149669    -0.887764    1.446328    3.692246    -0.957773    -3.063362    15.243629    7.330717    -2.960273    0.298525    7.246771    13.917394    -1.011630    3.200560    -11.613013    10.839956    -6.580136    6.333818    -3.582845    -5.841265    -2.232069    -3.126488    -6.853927    -13.530336    0.433069    6.604865    14.944969    6.156271    7.005822    -2.775578    -1.710967    2.983639    0.913888    -1.625053    1.713432    1.143873    1.706759    5.932755    -2.874911    0.938406    -6.159382    4.720662    -5.726108    6.625030    0.000000    0.000000    0.000000    4.263586    -0.153819    2.022801    -1.833771    5.401733    4.070118    -3.034244    -6.258502    -15.127504    0.000000    0.000000    0.000000    
37.986313    88.185555    28.355869    -1.545805    -1.175957    87.952362    0.648874    -4.118703    -0.881139    1.437255    3.632334    -0.950136    -2.985401    15.343712    7.301684    -3.002187    0.197764    7.204516    13.958160    -1.023752    3.180495    -11.616685    10.846432    -6.564511    6.302454    -3.583959    -5.783211    -2.314495    -3.127331    -6.861228    -13.500662    0.431417    6.590503    14.903952    6.121075    6.978992    -2.741584    -1.671106    2.888655    1.105217    -1.584425    1.821205    1.133683    1.740571    5.935291    -2.866511    0.950852    -6.165314    4.696655    -5.736459    6.626043    0.000000    0.000000    0.000000    4.260803    -0.115812    2.029074    -1.839572    5.405039    4.050779    -3.020268    -6.268775    -15.115685    0.000000    0.000000    0.000000    
37.996777    88.187202    28.356310    -1.530239    -1.167727    87.949577    0.642432    -4.120979    -0.881466    1.443484    3.643459    -0.950579    -2.960063    15.313998    7.294894    -3.019039    0.251603    7.197097    13.984610    -1.040719    3.189176    -11.630322    10.832720    -6.568247    6.281695    -3.558233    -5.716334    -2.373441    -3.101517    -6.922509    -13.519763    0.420659    6.572112    14.900644    6.124638    6.990390    -2.735552    -1.668850    2.847974    1.187047    -1.581809    1.839305    1.121089    1.760502    5.948092    -2.855075    0.953743    -6.176003    4.692426    -5.736703    6.621523    0.000000    0.000000    0.000000    4.249854    -0.095933    2.049507    -1.834710    5.411685    4.056779    -3.015071    -6.277965    -15.136024    0.000000    0.000000    0.000000    
38.005447    88.188591    28.357618    -1.522093    -1.168147    87.948219    0.652571    -4.092724    -0.875349    1.425441    3.577835    -0.943267    -2.924848    15.269045    7.269106    -3.003838    0.413563    7.177505    13.991343    -1.022128    3.180608    -11.616077    10.845151    -6.576610    6.264394    -3.592959    -5.670549    -2.380760    -3.139506    -6.907755    -13.472029    0.385888    6.536358    14.866941    6.149181    7.001954    -2.722419    -1.673582    2.825969    1.082131    -1.589451    1.806728    1.122821    1.777039    5.944211    -2.863028    0.953951    -6.152680    4.691545    -5.734341    6.616385    0.000000    0.000000    0.000000    4.249578    -0.084250    2.046152    -1.832172    5.411525    4.046831    -3.112767    -6.270319    -15.117028    0.000000    0.000000    0.000000    
38.014473    88.190361    28.360594    -1.503831    -1.167637    87.953667    0.658672    -4.070432    -0.877217    1.414410    3.540386    -0.944318    -2.838273    15.392688    7.250777    -3.121037    0.259610    7.133929    14.004748    -1.018983    3.166077    -11.620144    10.828471    -6.568738    6.248679    -3.601114    -5.611341    -2.407704    -3.149805    -6.919012    -13.451253    0.386557    6.537042    14.847320    6.158190    6.994434    -2.663658    -1.622847    2.773587    0.888873    -1.543713    1.892053    1.121506    1.790787    5.955541    -2.853951    0.972991    -6.175907    4.688644    -5.738379    6.614093    0.000000    0.000000    0.000000    4.252668    -0.066488    2.046138    -1.832840    5.426400    4.049190    -3.132947    -6.274781    -15.133250    0.000000    0.000000    0.000000    
38.024025    88.193016    28.363216    -1.488433    -1.166937    87.951294    0.668078    -4.048767    -0.879775    1.404533    3.495561    -0.946257    -2.938007    15.181821    7.170894    -2.897173    0.657515    7.098637    13.989324    -1.019399    3.170046    -11.590174    10.812283    -6.574779    6.212421    -3.596025    -5.552529    -2.411107    -3.149253    -6.929891    -13.439377    0.402845    6.551360    14.835030    6.113751    6.993141    -2.639108    -1.606873    2.742823    0.730158    -1.531908    1.859157    1.119738    1.812331    5.969559    -2.855137    0.970956    -6.163292    4.678002    -5.735373    6.602981    0.000000    0.000000    0.000000    4.253711    -0.047316    2.062797    -1.835502    5.433798    4.045247    -3.129648    -6.275728    -15.135516    0.000000    0.000000    0.000000    
38.036129    88.194511    28.365463    -1.463314    -1.160121    87.949219    0.724843    -4.055545    -0.876316    1.276757    3.524437    -0.941287    -2.865656    15.166762    7.147469    -2.881659    0.676292    7.076500    14.083206    -1.043460    3.180612    -11.598325    10.772680    -6.591970    6.203382    -3.518971    -5.450767    -2.602041    -3.064025    -7.041496    -13.376676    0.380881    6.542867    14.831315    6.098950    6.999955    -2.648124    -1.595400    2.706405    0.926298    -1.517625    1.888435    1.110536    1.846087    5.984104    -2.846009    0.974689    -6.183418    4.684712    -5.734446    6.602968    0.000000    0.000000    0.000000    4.245650    -0.014669    2.067567    -1.833086    5.431246    4.060880    -3.038044    -6.272909    -15.163550    0.000000    0.000000    0.000000    
38.043896    88.196754    28.366888    -1.447036    -1.158808    87.958847    0.720483    -4.039046    -0.865714    1.272720    3.502865    -0.930088    -2.728349    15.368638    7.178017    -3.071292    0.399195    7.068525    14.117087    -1.051670    3.166743    -11.614430    10.720428    -6.629716    6.146786    -3.478492    -5.362708    -2.416994    -3.042538    -7.031643    -13.294285    0.343243    6.442308    14.739570    6.166470    7.057729    -2.659553    -1.540320    2.675855    0.946351    -1.462216    1.938164    1.111980    1.862031    5.972705    -2.851829    0.980402    -6.157107    4.662650    -5.728167    6.581710    0.000000    0.000000    0.000000    4.246424    0.003736    2.050530    -1.825731    5.370326    4.087340    -3.143606    -6.183359    -15.184947    0.000000    0.000000    0.000000    
38.052208    88.199303    28.370104    -1.426655    -1.152699    87.958466    0.555543    -3.985754    -0.849776    1.592756    3.418218    -0.916686    -2.850185    15.411448    7.134488    -3.079925    0.413243    7.022237    13.954452    -1.044317    3.107690    -11.615816    10.667616    -6.637970    6.121963    -3.452290    -5.299439    -2.416236    -3.020538    -7.049825    -13.564315    0.424445    6.413771    14.833983    6.141086    7.050169    -2.647859    -1.546152    2.665651    0.932415    -1.468852    1.934168    1.104003    1.884170    5.972297    -2.847616    0.990595    -6.174636    4.639697    -5.729033    6.608902    0.000000    0.000000    0.000000    4.243046    0.030482    2.048065    -1.837141    5.433794    4.037398    -3.017703    -6.274033    -15.136581    0.000000    0.000000    0.000000    
38.062702    88.200912    28.372972    -1.403459    -1.153037    87.957558    0.561030    -3.958127    -0.841007    1.579347    3.381802    -0.907118    -2.814771    15.452100    7.116078    -3.100506    0.395756    6.998394    13.972942    -1.038171    3.087732    -11.626120    10.631358    -6.647974    6.084769    -3.451374    -5.260195    -2.398430    -3.025250    -7.016063    -13.528447    0.427655    6.389173    14.809799    6.135006    7.062178    -2.647747    -1.541371    2.633252    1.050380    -1.462805    1.933613    1.103957    1.910698    5.978604    -2.842716    1.000104    -6.197646    4.654312    -5.731182    6.619900    0.000000    0.000000    0.000000    4.243417    0.060069    2.053659    -1.836391    5.437675    4.032107    -3.108382    -6.273570    -15.128274    0.000000    0.000000    0.000000    
